<?xml version="1.0" encoding="UTF-8"?>
<svg id="Shared_Prosperity_Stacked" data-name="Shared Prosperity Stacked" xmlns="http://www.w3.org/2000/svg" viewBox="0 0 1080 1080">
  <defs>
    <style>
      .cls-1, .cls-2 {
        fill: #024885;
      }

      .cls-2 {
        font-family: Gotham-Book, Gotham;
        font-size: 53.47px;
      }

      .cls-3 {
        fill: #fd2520;
      }

      .cls-4 {
        letter-spacing: -.07em;
      }

      .cls-5 {
        letter-spacing: -.05em;
      }

      .cls-6 {
        letter-spacing: -.05em;
      }

      .cls-7 {
        letter-spacing: -.07em;
      }

      .cls-8 {
        letter-spacing: -.05em;
      }

      .cls-9 {
        letter-spacing: -.09em;
      }
    </style>
  </defs>
  <g>
    <path class="cls-1" d="M183.34,668.57c-12.25,0-24.62-4.28-34.32-12.94l10.52-12.6c7.28,6.01,14.91,9.82,24.15,9.82,7.28,0,11.67-2.89,11.67-7.63v-.23c0-4.51-2.77-6.82-16.29-10.29-16.29-4.16-26.81-8.67-26.81-24.73v-.23c0-14.68,11.79-24.38,28.31-24.38,11.79,0,21.84,3.7,30.05,10.29l-9.24,13.41c-7.17-4.97-14.22-7.98-21.03-7.98s-10.4,3.12-10.4,7.05v.23c0,5.32,3.47,7.05,17.45,10.63,16.41,4.28,25.66,10.17,25.66,24.27v.23c0,16.06-12.25,25.08-29.7,25.08Z"/>
    <path class="cls-1" d="M241.23,668.46c-10.75,0-18.03-4.28-18.03-18.61v-29.35h-7.4v-15.02h7.4v-15.83h17.57v15.83h14.56v15.02h-14.56v26.46c0,4.05,1.73,6.01,5.66,6.01,3.23,0,6.13-.81,8.67-2.2v14.1c-3.7,2.2-7.98,3.58-13.87,3.58Z"/>
    <path class="cls-1" d="M298.78,667.42v-6.7c-4.28,4.74-10.17,7.86-18.72,7.86-11.67,0-21.27-6.7-21.27-18.95v-.23c0-13.52,10.29-19.76,24.96-19.76,6.24,0,10.75,1.04,15.14,2.54v-1.04c0-7.28-4.51-11.33-13.29-11.33-6.7,0-11.44,1.27-17.1,3.35l-4.39-13.41c6.82-3,13.52-4.97,24.04-4.97,19.19,0,27.62,9.94,27.62,26.7v35.94h-16.99Zm.35-24.96c-3-1.39-6.93-2.31-11.21-2.31-7.51,0-12.13,3-12.13,8.55v.23c0,4.74,3.93,7.51,9.59,7.51,8.21,0,13.75-4.51,13.75-10.86v-3.12Z"/>
    <path class="cls-1" d="M364.3,667.42v-34.55c0-8.32-3.93-12.6-10.63-12.6s-10.98,4.28-10.98,12.6v34.55h-17.57v-61.94h17.57v8.78c4.04-5.2,9.24-9.94,18.14-9.94,13.29,0,21.03,8.78,21.03,23v40.1h-17.57Z"/>
    <path class="cls-1" d="M418.03,597.04c-4.04,0-6.36,2.08-6.36,6.7v2.43h14.21v14.33h-13.98v46.92h-17.57v-46.92h-7.28v-14.45h7.28v-3.93c0-13.64,6.82-19.88,19.18-19.88,5.55,0,9.25,.69,12.48,1.73v14.56c-2.54-.92-4.97-1.5-7.97-1.5Z"/>
    <path class="cls-1" d="M458.94,668.8c-19.19,0-33.4-14.21-33.4-32.01v-.23c0-17.8,14.33-32.24,33.63-32.24s33.4,14.22,33.4,32.01v.23c0,17.8-14.33,32.24-33.63,32.24Zm16.29-32.24c0-9.13-6.59-17.1-16.29-17.1s-16.06,7.74-16.06,16.87v.23c0,9.13,6.59,17.1,16.29,17.1s16.06-7.74,16.06-16.87v-.23Z"/>
    <path class="cls-1" d="M535.9,622.69c-11.67,0-18.84,7.05-18.84,21.84v22.88h-17.57v-61.94h17.57v12.48c3.58-8.55,9.36-14.1,19.76-13.64v18.38h-.92Z"/>
    <path class="cls-1" d="M567.57,668.46c-10.75,0-18.03-4.28-18.03-18.61v-29.35h-7.4v-15.02h7.4v-15.83h17.57v15.83h14.56v15.02h-14.56v26.46c0,4.05,1.73,6.01,5.66,6.01,3.23,0,6.13-.81,8.67-2.2v14.1c-3.7,2.2-7.98,3.58-13.87,3.58Z"/>
    <path class="cls-1" d="M644.65,642.57h-43.11c1.73,7.97,7.28,12.13,15.14,12.13,5.89,0,10.17-1.85,15.03-6.36l10.05,8.9c-5.78,7.17-14.1,11.56-25.31,11.56-18.61,0-32.36-13.06-32.36-32.01v-.23c0-17.68,12.6-32.24,30.63-32.24,20.69,0,30.16,16.06,30.16,33.63v.23c0,1.73-.12,2.77-.23,4.39Zm-29.93-24.15c-7.28,0-12.02,5.2-13.41,13.18h26.46c-1.04-7.86-5.66-13.18-13.06-13.18Z"/>
    <path class="cls-3" d="M655.74,586.52h58.48v8.32h-49.35v27.62h44.15v8.32h-44.15v28.31h49.92v8.32h-59.06v-80.9Z"/>
    <path class="cls-3" d="M721.26,637.72v-.23c0-19.53,14.22-31.09,28.55-31.09,11.09,0,18.26,6.01,22.88,12.71v-36.06h8.9v84.37h-8.9v-12.02c-4.85,7.17-11.9,13.29-22.88,13.29-14.33,0-28.55-11.33-28.55-30.97Zm51.77-.12v-.23c0-13.75-10.52-23-21.61-23s-21.03,8.55-21.03,23v.23c0,14.1,9.82,23.11,21.03,23.11s21.61-9.36,21.61-23.11Z"/>
    <path class="cls-3" d="M794.98,677.82l4.04-6.93c6.82,4.97,14.45,7.63,23,7.63,13.18,0,21.73-7.28,21.73-21.26v-7.05c-5.2,6.93-12.48,12.6-23.46,12.6-14.33,0-28.08-10.75-28.08-27.97v-.23c0-17.45,13.87-28.2,28.08-28.2,11.21,0,18.49,5.55,23.34,12.02v-10.75h8.9v49.35c0,9.24-2.77,16.29-7.63,21.15-5.32,5.32-13.29,7.97-22.77,7.97-9.94,0-19.19-2.77-27.16-8.32Zm49-43.11v-.23c0-12.25-10.63-20.22-21.96-20.22s-20.69,7.86-20.69,20.11v.23c0,12.02,9.59,20.34,20.69,20.34s21.96-8.21,21.96-20.23Z"/>
    <path class="cls-3" d="M862.93,637.72v-.23c0-17.22,12.13-31.09,28.66-31.09,17.68,0,27.85,14.1,27.85,31.55,0,1.16,0,1.85-.12,2.89h-47.38c1.27,12.94,10.4,20.23,21.03,20.23,8.21,0,13.98-3.35,18.84-8.44l5.55,4.97c-6.01,6.7-13.29,11.21-24.62,11.21-16.41,0-29.82-12.6-29.82-31.09Zm47.5-3.47c-.92-10.86-7.17-20.34-19.07-20.34-10.4,0-18.26,8.67-19.42,20.34h38.49Z"/>
  </g>
  <g>
    <path class="cls-1" d="M475.32,447.66c-5.75,.63-11.21,2.23-16.21,4.61-6.8,3.26-12.75,7.99-17.45,13.79-.58,.72-1.14,1.45-1.68,2.2l-14.27-14.27-.04-.05c-5.74-6.04-9.26-14.2-9.26-23.18s3.53-17.19,9.29-23.23l1.14-1.14,83.01-83.01,1.14-1.14c6.04-5.76,14.22-9.29,23.23-9.29s17.19,3.53,23.23,9.29l.29,.28,.57,.57,.28,.29,45.42,45.42c-1.66,5.6-6.15,9.98-11.82,11.47-1.37,.36-2.82,.56-4.31,.56s-2.94-.2-4.31-.56c-2.61-.69-4.97-1.99-6.93-3.75-.03,0-.06-.04-.07-.07-.09-.07-.18-.15-.26-.24-.3-.28-.6-.58-.88-.9-.03-.02-.06-.05-.07-.07l-13.85-13.84c-5.26-5.27-11.7-9.39-18.87-11.91-.94-.34-1.89-.65-2.85-.92-4.44-1.28-9.13-1.96-13.98-1.96-5.9,0-11.57,1.01-16.83,2.88-1.69,.59-3.34,1.28-4.95,2.04-12,5.75-21.37,16.09-25.84,28.74-1.87,5.26-2.88,10.93-2.88,16.83s1.01,11.57,2.88,16.83c3.77,10.68,11.03,19.71,20.43,25.72,3.22,2.07,6.69,3.77,10.35,5.06,5.26,1.87,10.93,2.88,16.83,2.88h16.83c9.29,0,16.83,7.54,16.83,16.83s-7.54,16.83-16.83,16.83c-4.53,0-8.64-1.8-11.67-4.71-.16-.14-.31-.29-.45-.45l-13.03-13.02s-.04-.05-.06-.07l-1.72-1.72s-.04-.04-.07-.06c-2.07-1.96-4.3-3.76-6.68-5.36-4.39-2.95-9.27-5.22-14.49-6.68-2.79-.78-5.69-1.33-8.65-1.61h-9.89c-.22,.02-.42,.04-.63,.07Z"/>
    <path class="cls-1" d="M652.04,430.76c0,9.14-3.66,17.45-9.57,23.52l-.57,.57-83.58,83.58-.57,.57c-6.07,5.92-14.37,9.57-23.52,9.57s-17.09-3.5-23.12-9.2l-.1-.09-1.14-1.14-.09-.1-45-45c1.53-5.17,5.5-9.3,10.56-11.08,.88-.31,1.8-.55,2.75-.7,.92-.16,1.86-.24,2.82-.24s1.91,.08,2.82,.24c3.38,.56,6.41,2.14,8.79,4.41,.2,.18,.39,.37,.57,.57l14.74,14.74c.38,.36,.77,.72,1.17,1.08,5.68,5.09,12.51,8.91,20.07,11.01,4.32,1.21,8.88,1.85,13.6,1.85,7.8,0,15.19-1.77,21.78-4.93,4.34-2.08,8.34-4.76,11.88-7.94,6.26-5.59,11.11-12.73,13.95-20.8,1.87-5.26,2.88-10.93,2.88-16.83s-1.01-11.57-2.88-16.83c-2.84-8.07-7.7-15.2-13.95-20.8-2.02-1.81-4.18-3.46-6.48-4.93-7.85-5.03-17.18-7.94-27.18-7.94h-16.83c-9.29,0-16.83-7.54-16.83-16.83s7.54-16.83,16.83-16.83c4.57,0,8.72,1.83,11.75,4.79,.1,.09,.2,.19,.29,.29l4.79,4.79,8.57,8.57s.08,.09,.12,.13l1.72,1.72s.08,.07,.13,.12c5.78,5.48,12.86,9.6,20.72,11.86,.79,.23,1.59,.44,2.4,.63,1.32,.32,2.66,.57,4.02,.78,2.46,.36,4.98,.56,7.56,.56s5.1-.2,7.56-.56c5.03-.76,9.81-2.25,14.24-4.37,.09-.05,.19-.09,.28-.14,7.51-3.67,13.98-9.14,18.83-15.84l12.81,12.81,.29,.28,.57,.57,.28,.29c5.76,6.04,9.29,14.22,9.29,23.23Z"/>
  </g>
  <text class="cls-2" transform="translate(197.07 748.21)"><tspan class="cls-5" x="0" y="0">..</tspan><tspan class="cls-9" x="20.85" y="0">.</tspan><tspan class="cls-8" x="29.14" y="0">C</tspan><tspan class="cls-4" x="65.92" y="0">r</tspan><tspan class="cls-8" x="83.73" y="0">e</tspan><tspan class="cls-6" x="112.71" y="0">a</tspan><tspan class="cls-5" x="140.72" y="0">ting sha</tspan><tspan class="cls-4" x="329.99" y="0">r</tspan><tspan class="cls-8" x="347.8" y="0">ed p</tspan><tspan class="cls-7" x="455.8" y="0">r</tspan><tspan class="cls-8" x="473.6" y="0">osperity</tspan></text>
</svg>