<?xml version="1.0" encoding="UTF-8"?>
<svg id="Stanforteedge_Logo_Stacked" data-name="Stanforteedge Logo Stacked" xmlns="http://www.w3.org/2000/svg" viewBox="0 0 1080 1080">
  <defs>
    <style>
      .cls-1 {
        fill: #024885;
      }

      .cls-2 {
        fill: #fd2520;
      }
    </style>
  </defs>
  <g>
    <path class="cls-1" d="M148.85,723.01c-13.22,0-26.56-4.62-37.04-13.97l11.35-13.59c7.86,6.49,16.09,10.6,26.07,10.6,7.86,0,12.6-3.12,12.6-8.23v-.25c0-4.86-2.99-7.36-17.58-11.1-17.58-4.49-28.93-9.35-28.93-26.69v-.25c0-15.84,12.72-26.31,30.56-26.31,12.72,0,23.57,3.99,32.43,11.1l-9.98,14.47c-7.73-5.36-15.34-8.61-22.7-8.61s-11.23,3.37-11.23,7.61v.25c0,5.74,3.74,7.61,18.83,11.47,17.71,4.61,27.69,10.97,27.69,26.19v.25c0,17.34-13.22,27.06-32.05,27.06Z"/>
    <path class="cls-1" d="M211.32,722.89c-11.6,0-19.45-4.62-19.45-20.08v-31.68h-7.98v-16.21h7.98v-17.09h18.96v17.09h15.71v16.21h-15.71v28.56c0,4.37,1.87,6.49,6.11,6.49,3.49,0,6.61-.87,9.35-2.37v15.22c-3.99,2.37-8.61,3.87-14.97,3.87Z"/>
    <path class="cls-1" d="M273.43,721.77v-7.23c-4.62,5.11-10.97,8.48-20.2,8.48-12.6,0-22.95-7.23-22.95-20.45v-.25c0-14.59,11.1-21.32,26.94-21.32,6.73,0,11.6,1.12,16.34,2.74v-1.12c0-7.86-4.86-12.22-14.34-12.22-7.23,0-12.35,1.37-18.46,3.62l-4.74-14.47c7.36-3.24,14.59-5.36,25.94-5.36,20.7,0,29.81,10.73,29.81,28.81v38.79h-18.33Zm.37-26.94c-3.24-1.5-7.48-2.49-12.1-2.49-8.11,0-13.1,3.24-13.1,9.23v.25c0,5.11,4.24,8.11,10.35,8.11,8.86,0,14.84-4.86,14.84-11.72v-3.37Z"/>
    <path class="cls-1" d="M344.13,721.77v-37.29c0-8.98-4.24-13.59-11.47-13.59s-11.85,4.61-11.85,13.59v37.29h-18.96v-66.85h18.96v9.48c4.36-5.61,9.98-10.73,19.58-10.73,14.34,0,22.7,9.48,22.7,24.82v43.28h-18.96Z"/>
    <path class="cls-1" d="M402.12,645.81c-4.36,0-6.86,2.25-6.86,7.23v2.62h15.34v15.46h-15.09v50.64h-18.96v-50.64h-7.86v-15.59h7.86v-4.24c0-14.72,7.36-21.45,20.7-21.45,5.99,0,9.98,.75,13.47,1.87v15.71c-2.74-1-5.36-1.62-8.6-1.62Z"/>
    <path class="cls-1" d="M446.26,723.26c-20.7,0-36.04-15.34-36.04-34.55v-.25c0-19.21,15.47-34.8,36.29-34.8s36.04,15.34,36.04,34.55v.25c0,19.21-15.46,34.8-36.29,34.8Zm17.58-34.8c0-9.85-7.11-18.46-17.58-18.46s-17.34,8.36-17.34,18.21v.25c0,9.85,7.11,18.46,17.58,18.46s17.34-8.36,17.34-18.21v-.25Z"/>
    <path class="cls-1" d="M529.32,673.5c-12.6,0-20.33,7.61-20.33,23.57v24.69h-18.96v-66.85h18.96v13.47c3.87-9.23,10.1-15.21,21.33-14.72v19.83h-1Z"/>
    <path class="cls-1" d="M563.5,722.89c-11.6,0-19.45-4.62-19.45-20.08v-31.68h-7.98v-16.21h7.98v-17.09h18.96v17.09h15.71v16.21h-15.71v28.56c0,4.37,1.87,6.49,6.11,6.49,3.49,0,6.61-.87,9.35-2.37v15.22c-3.99,2.37-8.61,3.87-14.97,3.87Z"/>
    <path class="cls-1" d="M646.68,694.95h-46.52c1.87,8.6,7.86,13.1,16.34,13.1,6.36,0,10.98-2,16.21-6.86l10.85,9.6c-6.24,7.73-15.22,12.47-27.31,12.47-20.08,0-34.92-14.09-34.92-34.55v-.25c0-19.08,13.59-34.8,33.05-34.8,22.32,0,32.55,17.34,32.55,36.29v.25c0,1.87-.12,2.99-.25,4.74Zm-32.3-26.07c-7.86,0-12.97,5.61-14.47,14.22h28.56c-1.12-8.48-6.11-14.22-14.09-14.22Z"/>
    <path class="cls-2" d="M658.64,634.46h63.11v8.98h-53.25v29.81h47.64v8.98h-47.64v30.56h53.88v8.98h-63.73v-87.3Z"/>
    <path class="cls-2" d="M729.35,689.71v-.25c0-21.08,15.34-33.55,30.8-33.55,11.97,0,19.71,6.49,24.69,13.72v-38.91h9.6v91.04h-9.6v-12.97c-5.24,7.73-12.85,14.34-24.69,14.34-15.46,0-30.8-12.22-30.8-33.42Zm55.87-.12v-.25c0-14.84-11.35-24.82-23.32-24.82s-22.7,9.23-22.7,24.82v.25c0,15.21,10.6,24.94,22.7,24.94s23.32-10.1,23.32-24.94Z"/>
    <path class="cls-2" d="M808.91,732.99l4.36-7.48c7.36,5.36,15.59,8.23,24.82,8.23,14.22,0,23.45-7.86,23.45-22.95v-7.61c-5.61,7.48-13.47,13.59-25.32,13.59-15.47,0-30.31-11.6-30.31-30.18v-.25c0-18.83,14.97-30.43,30.31-30.43,12.1,0,19.95,5.99,25.19,12.97v-11.6h9.6v53.25c0,9.98-2.99,17.58-8.23,22.82-5.74,5.74-14.34,8.6-24.57,8.6-10.73,0-20.7-2.99-29.31-8.98Zm52.88-46.52v-.25c0-13.22-11.47-21.82-23.7-21.82s-22.32,8.48-22.32,21.7v.25c0,12.97,10.35,21.95,22.32,21.95s23.7-8.86,23.7-21.83Z"/>
    <path class="cls-2" d="M882.23,689.71v-.25c0-18.58,13.1-33.55,30.93-33.55,19.08,0,30.06,15.21,30.06,34.05,0,1.25,0,2-.12,3.12h-51.13c1.37,13.97,11.23,21.83,22.7,21.83,8.86,0,15.09-3.62,20.33-9.1l5.99,5.36c-6.49,7.23-14.34,12.1-26.56,12.1-17.71,0-32.18-13.59-32.18-33.55Zm51.26-3.74c-1-11.72-7.73-21.95-20.58-21.95-11.22,0-19.71,9.35-20.95,21.95h41.53Z"/>
  </g>
  <g>
    <path class="cls-1" d="M463.94,484.61c-6.21,.68-12.1,2.4-17.5,4.97-7.34,3.52-13.76,8.63-18.83,14.88-.63,.78-1.23,1.56-1.82,2.37l-15.4-15.4-.04-.05c-6.2-6.52-9.99-15.33-9.99-25.01s3.81-18.55,10.03-25.07l1.23-1.23,89.59-89.59,1.23-1.23c6.52-6.22,15.35-10.03,25.07-10.03s18.55,3.81,25.07,10.03l.31,.3,.62,.62,.3,.31,49.01,49.01c-1.79,6.04-6.64,10.77-12.75,12.38-1.48,.39-3.05,.61-4.65,.61s-3.17-.21-4.65-.61c-2.82-.75-5.37-2.15-7.48-4.05-.03-.01-.06-.04-.08-.07-.1-.08-.19-.16-.28-.26-.32-.3-.65-.63-.95-.97-.03-.02-.06-.05-.07-.08l-14.94-14.93c-5.68-5.69-12.62-10.13-20.36-12.86-1.01-.36-2.04-.7-3.08-.99-4.79-1.38-9.85-2.12-15.09-2.12-6.37,0-12.48,1.09-18.16,3.11-1.83,.64-3.6,1.38-5.34,2.2-12.95,6.21-23.06,17.37-27.88,31.02-2.02,5.68-3.11,11.8-3.11,18.16s1.09,12.48,3.11,18.16c4.07,11.52,11.91,21.27,22.05,27.76,3.47,2.23,7.21,4.07,11.17,5.46,5.68,2.02,11.8,3.11,18.16,3.11h18.16c10.03,0,18.16,8.13,18.16,18.16s-8.13,18.16-18.16,18.16c-4.88,0-9.32-1.94-12.59-5.09-.17-.15-.33-.31-.48-.48l-14.06-14.05s-.04-.05-.06-.07l-1.86-1.86s-.04-.04-.07-.06c-2.23-2.12-4.64-4.06-7.2-5.78-4.74-3.18-10-5.63-15.64-7.2-3.01-.84-6.14-1.43-9.33-1.74h-10.68c-.23,.02-.45,.04-.68,.07Z"/>
    <path class="cls-1" d="M654.66,466.38c0,9.87-3.95,18.83-10.33,25.38l-.62,.62-90.2,90.2-.62,.62c-6.55,6.39-15.51,10.33-25.38,10.33s-18.45-3.77-24.95-9.93l-.11-.1-1.23-1.23-.1-.11-48.57-48.57c1.65-5.58,5.93-10.04,11.39-11.96,.95-.33,1.95-.6,2.97-.76,.99-.17,2.01-.26,3.05-.26s2.06,.09,3.05,.26c3.64,.61,6.92,2.31,9.49,4.76,.21,.19,.42,.4,.62,.62l15.9,15.9c.41,.39,.83,.78,1.26,1.16,6.13,5.49,13.5,9.62,21.65,11.89,4.66,1.3,9.59,2,14.67,2,8.42,0,16.39-1.91,23.5-5.32,4.68-2.24,9-5.14,12.83-8.57,6.75-6.03,11.99-13.73,15.06-22.44,2.02-5.68,3.11-11.8,3.11-18.16s-1.09-12.48-3.11-18.16c-3.07-8.71-8.3-16.41-15.06-22.44-2.18-1.96-4.51-3.73-6.99-5.32-8.47-5.43-18.54-8.57-29.33-8.57h-18.16c-10.03,0-18.16-8.13-18.16-18.16s8.13-18.16,18.16-18.16c4.93,0,9.41,1.98,12.68,5.17,.11,.1,.21,.2,.31,.31l5.17,5.17,9.24,9.24c.05,.05,.09,.1,.13,.14l1.86,1.86s.09,.08,.14,.13c6.24,5.91,13.87,10.36,22.36,12.8,.86,.25,1.72,.47,2.59,.68,1.42,.34,2.87,.62,4.34,.84,2.65,.39,5.38,.61,8.15,.61s5.5-.21,8.16-.61c5.43-.82,10.59-2.43,15.37-4.71,.1-.05,.2-.1,.3-.15,8.1-3.96,15.09-9.86,20.32-17.09l13.82,13.82,.31,.3,.62,.62,.3,.31c6.22,6.52,10.03,15.35,10.03,25.07Z"/>
  </g>
</svg>