<?xml version="1.0" encoding="UTF-8"?>
<svg id="Shared_Prosperity" data-name="Shared Prosperity" xmlns="http://www.w3.org/2000/svg" viewBox="0 0 1080 1080">
  <defs>
    <style>
      .cls-1 {
        letter-spacing: -.05em;
      }

      .cls-2, .cls-3 {
        fill: #024885;
      }

      .cls-4 {
        letter-spacing: -.05em;
      }

      .cls-5 {
        fill: #fd2520;
      }

      .cls-6 {
        letter-spacing: -.09em;
      }

      .cls-3 {
        font-family: Gotham-Book, Gotham;
        font-size: 46.41px;
      }

      .cls-7 {
        letter-spacing: -.07em;
      }

      .cls-8 {
        letter-spacing: -.05em;
      }
    </style>
  </defs>
  <g>
    <g>
      <path class="cls-2" d="M160.49,564.12c-3.62,.39-7.05,1.4-10.2,2.9-4.28,2.05-8.02,5.03-10.98,8.68-.36,.45-.72,.91-1.06,1.38l-8.98-8.98-.02-.03c-3.61-3.8-5.82-8.94-5.82-14.58s2.22-10.81,5.85-14.61l.72-.72,52.23-52.23,.72-.72c3.8-3.62,8.95-5.85,14.61-5.85s10.81,2.22,14.61,5.85l.18,.18,.36,.36,.18,.18,28.57,28.57c-1.04,3.52-3.87,6.28-7.44,7.22-.86,.23-1.78,.35-2.71,.35s-1.85-.12-2.71-.35c-1.64-.44-3.13-1.25-4.36-2.36-.02,0-.04-.02-.05-.04-.06-.05-.11-.09-.16-.15-.19-.18-.38-.36-.55-.56-.02-.01-.04-.03-.04-.05l-8.71-8.71c-3.31-3.32-7.36-5.91-11.87-7.5-.59-.21-1.19-.41-1.79-.58-2.79-.81-5.74-1.24-8.8-1.24-3.71,0-7.28,.64-10.59,1.81-1.06,.37-2.1,.81-3.11,1.28-7.55,3.62-13.44,10.12-16.25,18.08-1.18,3.31-1.81,6.88-1.81,10.59s.64,7.28,1.81,10.59c2.37,6.72,6.94,12.4,12.85,16.18,2.02,1.3,4.21,2.37,6.51,3.18,3.31,1.18,6.88,1.81,10.59,1.81h10.59c5.85,0,10.59,4.74,10.59,10.59s-4.74,10.59-10.59,10.59c-2.85,0-5.44-1.13-7.34-2.97-.1-.09-.19-.18-.28-.28l-8.2-8.19s-.02-.03-.04-.04l-1.08-1.08s-.02-.02-.04-.04c-1.3-1.24-2.71-2.36-4.2-3.37-2.77-1.85-5.83-3.28-9.12-4.2-1.75-.49-3.58-.84-5.44-1.01h-6.22c-.14,.01-.26,.02-.39,.04Z"/>
      <path class="cls-2" d="M271.68,553.49c0,5.75-2.3,10.98-6.02,14.8l-.36,.36-52.59,52.59-.36,.36c-3.82,3.72-9.04,6.02-14.8,6.02s-10.75-2.2-14.55-5.79l-.06-.06-.72-.72-.06-.06-28.32-28.32c.96-3.25,3.46-5.85,6.64-6.97,.55-.19,1.14-.35,1.73-.44,.58-.1,1.17-.15,1.78-.15s1.2,.05,1.78,.15c2.12,.35,4.04,1.35,5.53,2.78,.12,.11,.25,.24,.36,.36l9.27,9.27c.24,.23,.48,.45,.74,.68,3.57,3.2,7.87,5.61,12.63,6.93,2.72,.76,5.59,1.16,8.55,1.16,4.91,0,9.55-1.11,13.7-3.1,2.73-1.31,5.25-2.99,7.48-4.99,3.94-3.52,6.99-8.01,8.78-13.08,1.18-3.31,1.81-6.88,1.81-10.59s-.64-7.28-1.81-10.59c-1.79-5.08-4.84-9.57-8.78-13.08-1.27-1.14-2.63-2.18-4.08-3.1-4.94-3.17-10.81-4.99-17.1-4.99h-10.59c-5.85,0-10.59-4.74-10.59-10.59s4.74-10.59,10.59-10.59c2.88,0,5.49,1.15,7.39,3.01,.06,.06,.12,.12,.18,.18l3.01,3.01,5.39,5.39s.05,.06,.08,.08l1.08,1.08s.05,.05,.08,.08c3.64,3.45,8.09,6.04,13.04,7.46,.5,.15,1,.28,1.51,.39,.83,.2,1.67,.36,2.53,.49,1.55,.23,3.14,.35,4.75,.35s3.21-.12,4.76-.35c3.17-.48,6.17-1.42,8.96-2.75,.06-.03,.12-.06,.18-.09,4.72-2.31,8.8-5.75,11.85-9.97l8.06,8.06,.18,.18,.36,.36,.18,.18c3.62,3.8,5.85,8.95,5.85,14.61Z"/>
    </g>
    <g>
      <path class="cls-2" d="M317.65,569.65c-10.63,0-21.37-3.71-29.79-11.24l9.13-10.93c6.32,5.22,12.94,8.53,20.97,8.53,6.32,0,10.13-2.51,10.13-6.62v-.2c0-3.91-2.41-5.92-14.14-8.93-14.14-3.61-23.27-7.52-23.27-21.47v-.2c0-12.74,10.23-21.17,24.58-21.17,10.23,0,18.96,3.21,26.08,8.93l-8.02,11.64c-6.22-4.31-12.34-6.92-18.26-6.92s-9.03,2.71-9.03,6.12v.2c0,4.62,3.01,6.12,15.15,9.23,14.24,3.71,22.27,8.83,22.27,21.06v.2c0,13.94-10.63,21.77-25.78,21.77Z"/>
      <path class="cls-2" d="M367.9,569.55c-9.33,0-15.65-3.71-15.65-16.15v-25.48h-6.42v-13.04h6.42v-13.74h15.25v13.74h12.64v13.04h-12.64v22.97c0,3.51,1.5,5.22,4.92,5.22,2.81,0,5.32-.7,7.52-1.91v12.24c-3.21,1.91-6.92,3.11-12.04,3.11Z"/>
      <path class="cls-2" d="M417.85,568.65v-5.82c-3.71,4.11-8.83,6.82-16.25,6.82-10.13,0-18.46-5.82-18.46-16.45v-.2c0-11.74,8.93-17.15,21.67-17.15,5.42,0,9.33,.9,13.14,2.21v-.9c0-6.32-3.91-9.83-11.54-9.83-5.82,0-9.93,1.1-14.85,2.91l-3.81-11.64c5.92-2.61,11.74-4.31,20.86-4.31,16.65,0,23.97,8.63,23.97,23.17v31.2h-14.75Zm.3-21.67c-2.61-1.2-6.02-2.01-9.73-2.01-6.52,0-10.53,2.61-10.53,7.42v.2c0,4.11,3.41,6.52,8.33,6.52,7.12,0,11.94-3.91,11.94-9.43v-2.71Z"/>
      <path class="cls-2" d="M474.72,568.65v-29.99c0-7.22-3.41-10.93-9.23-10.93s-9.53,3.71-9.53,10.93v29.99h-15.25v-53.77h15.25v7.62c3.51-4.51,8.02-8.63,15.75-8.63,11.54,0,18.26,7.62,18.26,19.96v34.81h-15.25Z"/>
      <path class="cls-2" d="M521.36,507.56c-3.51,0-5.52,1.81-5.52,5.82v2.11h12.34v12.44h-12.14v40.73h-15.25v-40.73h-6.32v-12.54h6.32v-3.41c0-11.84,5.92-17.25,16.65-17.25,4.82,0,8.03,.6,10.83,1.5v12.64c-2.21-.8-4.31-1.3-6.92-1.3Z"/>
      <path class="cls-2" d="M556.87,569.85c-16.65,0-28.99-12.34-28.99-27.79v-.2c0-15.45,12.44-27.99,29.19-27.99s28.99,12.34,28.99,27.79v.2c0,15.45-12.44,27.99-29.19,27.99Zm14.14-27.99c0-7.92-5.72-14.85-14.14-14.85s-13.94,6.72-13.94,14.65v.2c0,7.92,5.72,14.85,14.14,14.85s13.94-6.72,13.94-14.65v-.2Z"/>
      <path class="cls-2" d="M623.66,529.83c-10.13,0-16.35,6.12-16.35,18.96v19.86h-15.25v-53.77h15.25v10.83c3.11-7.42,8.12-12.24,17.15-11.84v15.95h-.8Z"/>
      <path class="cls-2" d="M651.16,569.55c-9.33,0-15.65-3.71-15.65-16.15v-25.48h-6.42v-13.04h6.42v-13.74h15.25v13.74h12.64v13.04h-12.64v22.97c0,3.51,1.5,5.22,4.92,5.22,2.81,0,5.32-.7,7.52-1.91v12.24c-3.21,1.91-6.92,3.11-12.04,3.11Z"/>
      <path class="cls-2" d="M718.06,547.08h-37.42c1.51,6.92,6.32,10.53,13.14,10.53,5.12,0,8.83-1.61,13.04-5.52l8.73,7.72c-5.02,6.22-12.24,10.03-21.97,10.03-16.15,0-28.09-11.33-28.09-27.79v-.2c0-15.35,10.93-27.99,26.58-27.99,17.96,0,26.18,13.94,26.18,29.19v.2c0,1.51-.1,2.41-.2,3.81Zm-25.98-20.97c-6.32,0-10.43,4.51-11.64,11.44h22.97c-.9-6.82-4.91-11.44-11.33-11.44Z"/>
      <path class="cls-5" d="M727.68,498.43h50.76v7.22h-42.83v23.97h38.32v7.22h-38.32v24.58h43.33v7.22h-51.26v-70.22Z"/>
      <path class="cls-5" d="M784.55,542.87v-.2c0-16.95,12.34-26.98,24.78-26.98,9.63,0,15.85,5.22,19.86,11.03v-31.3h7.72v73.23h-7.72v-10.43c-4.21,6.22-10.33,11.54-19.86,11.54-12.44,0-24.78-9.83-24.78-26.88Zm44.94-.1v-.2c0-11.94-9.13-19.96-18.76-19.96s-18.26,7.42-18.26,19.96v.2c0,12.24,8.53,20.06,18.26,20.06s18.76-8.13,18.76-20.06Z"/>
      <path class="cls-5" d="M848.54,577.68l3.51-6.02c5.92,4.31,12.54,6.62,19.96,6.62,11.44,0,18.86-6.32,18.86-18.46v-6.12c-4.51,6.02-10.83,10.93-20.36,10.93-12.44,0-24.38-9.33-24.38-24.27v-.2c0-15.15,12.04-24.47,24.38-24.47,9.73,0,16.05,4.81,20.26,10.43v-9.33h7.72v42.83c0,8.02-2.41,14.14-6.62,18.36-4.61,4.61-11.54,6.92-19.76,6.92-8.63,0-16.65-2.41-23.57-7.22Zm42.53-37.42v-.2c0-10.63-9.23-17.55-19.06-17.55s-17.95,6.82-17.95,17.45v.2c0,10.43,8.32,17.66,17.95,17.66s19.06-7.12,19.06-17.56Z"/>
      <path class="cls-5" d="M907.52,542.87v-.2c0-14.95,10.53-26.98,24.88-26.98,15.35,0,24.18,12.24,24.18,27.38,0,1,0,1.61-.1,2.51h-41.13c1.1,11.24,9.03,17.56,18.26,17.56,7.12,0,12.14-2.91,16.35-7.32l4.81,4.31c-5.22,5.82-11.54,9.73-21.37,9.73-14.24,0-25.88-10.93-25.88-26.98Zm41.23-3.01c-.8-9.43-6.22-17.65-16.55-17.65-9.03,0-15.85,7.52-16.85,17.65h33.4Z"/>
    </g>
  </g>
  <text class="cls-3" transform="translate(282.81 627.34)"><tspan class="cls-8" x="0" y="0">..</tspan><tspan class="cls-6" x="18.1" y="0">.</tspan><tspan class="cls-8" x="25.29" y="0">C</tspan><tspan class="cls-7" x="57.22" y="0">r</tspan><tspan class="cls-8" x="72.67" y="0">e</tspan><tspan class="cls-4" x="97.83" y="0">a</tspan><tspan class="cls-8" x="122.14" y="0">ting sha</tspan><tspan class="cls-7" x="286.42" y="0">r</tspan><tspan class="cls-1" x="301.88" y="0">ed p</tspan><tspan class="cls-7" x="395.62" y="0">r</tspan><tspan class="cls-8" x="411.07" y="0">osperity</tspan></text>
</svg>