<?xml version="1.0" encoding="UTF-8"?>
<svg id="Stanforteedge_Icon" data-name="Stanforteedge Icon" xmlns="http://www.w3.org/2000/svg" viewBox="0 0 1080 1080">
  <defs>
    <style>
      .cls-1 {
        fill: #024885;
      }
    </style>
  </defs>
  <path class="cls-1" d="M373.24,602.09c-16.28,1.77-31.74,6.3-45.9,13.05-19.24,9.24-36.1,22.63-49.39,39.04-1.64,2.04-3.23,4.1-4.76,6.22l-40.39-40.39-.11-.13c-16.25-17.1-26.2-40.21-26.2-65.62s10.01-48.65,26.31-65.75l3.23-3.23,234.99-234.99,3.23-3.23c17.1-16.31,40.26-26.31,65.75-26.31s48.65,10.01,65.75,26.31l.82,.79,1.61,1.61,.79,.82,128.56,128.56c-4.69,15.85-17.42,28.24-33.46,32.48-3.89,1.03-7.99,1.59-12.2,1.59s-8.31-.56-12.2-1.59c-7.38-1.96-14.08-5.64-19.61-10.61-.08-.03-.16-.11-.21-.19-.26-.21-.5-.42-.74-.69-.85-.79-1.69-1.64-2.49-2.54-.08-.05-.16-.13-.19-.21l-39.2-39.17c-14.9-14.93-33.11-26.58-53.41-33.72-2.65-.95-5.35-1.83-8.07-2.59-12.57-3.63-25.83-5.56-39.57-5.56-16.7,0-32.74,2.86-47.64,8.15-4.79,1.67-9.45,3.63-14,5.77-33.96,16.28-60.48,45.55-73.13,81.37-5.29,14.9-8.15,30.94-8.15,47.64s2.86,32.74,8.15,47.64c10.67,30.23,31.23,55.8,57.83,72.82,9.11,5.85,18.93,10.67,29.3,14.32,14.9,5.29,30.94,8.15,47.64,8.15h47.64c26.31,0,47.64,21.33,47.64,47.64s-21.33,47.64-47.64,47.64c-12.81,0-24.46-5.08-33.03-13.34-.45-.4-.87-.82-1.27-1.27l-36.87-36.84c-.05-.08-.11-.13-.16-.19l-4.87-4.87c-.05-.05-.11-.11-.19-.16-5.85-5.56-12.18-10.64-18.9-15.17-12.44-8.34-26.23-14.77-41.03-18.9-7.89-2.2-16.09-3.76-24.48-4.55h-28c-.61,.05-1.19,.11-1.77,.19Z"/>
  <path class="cls-1" d="M873.51,554.26c0,25.89-10.35,49.39-27.1,66.57l-1.61,1.61-236.61,236.61-1.61,1.61c-17.18,16.75-40.68,27.1-66.57,27.1s-48.39-9.9-65.46-26.05l-.29-.26-3.23-3.23-.26-.29-127.4-127.4c4.34-14.64,15.56-26.34,29.88-31.37,2.49-.87,5.11-1.56,7.78-1.99,2.59-.45,5.27-.69,7.99-.69s5.4,.24,7.99,.69c9.56,1.59,18.16,6.06,24.88,12.49,.56,.5,1.11,1.06,1.61,1.61l41.72,41.72c1.09,1.03,2.17,2.04,3.31,3.04,16.07,14.4,35.42,25.22,56.8,31.18,12.23,3.41,25.15,5.24,38.49,5.24,22.08,0,42.99-5,61.65-13.95,12.28-5.88,23.61-13.47,33.64-22.47,17.71-15.83,31.45-36.02,39.49-58.87,5.29-14.9,8.15-30.94,8.15-47.64s-2.86-32.74-8.15-47.64c-8.05-22.84-21.78-43.04-39.49-58.87-5.72-5.14-11.83-9.79-18.34-13.95-22.21-14.24-48.62-22.47-76.95-22.47h-47.64c-26.31,0-47.64-21.33-47.64-47.64s21.33-47.64,47.64-47.64c12.94,0,24.7,5.19,33.27,13.55,.29,.26,.56,.53,.82,.82l13.55,13.55,24.25,24.25c.13,.13,.24,.26,.34,.37l4.87,4.87c.11,.11,.24,.21,.37,.34,16.36,15.51,36.4,27.18,58.66,33.56,2.25,.66,4.5,1.24,6.8,1.77,3.73,.9,7.52,1.61,11.38,2.2,6.96,1.03,14.11,1.59,21.39,1.59s14.43-.56,21.41-1.59c14.24-2.14,27.77-6.38,40.31-12.36,.26-.13,.53-.26,.79-.4,21.25-10.38,39.57-25.86,53.31-44.84l36.26,36.26,.82,.79,1.61,1.61,.79,.82c16.31,17.1,26.31,40.26,26.31,65.75Z"/>
</svg>