<svg width="512" height="512" viewBox="0 0 512 512" fill="none" xmlns="http://www.w3.org/2000/svg">
    
    <rect width="512" height="512" rx="100" fill="white"></rect>

    <path d="M256 464C256 464 160 384 128 304C96 224 128 128 128 128C128 128 224 160 304 192C384 224 464 320 464 320C464 320 384 416 304 448C224 480 256 464 256 464Z" stroke="#3A3A3A" stroke-width="12" stroke-linecap="round" stroke-linejoin="round" fill="#F7B928" fill-opacity="0.5"></path>
    <path d="M256 464C256 464 352 384 384 304C416 224 384 128 384 128C384 128 288 160 208 192C128 224 48 320 48 320C48 320 128 416 208 448C288 480 256 464 256 464Z" stroke="#3A3A3A" stroke-width="12" stroke-linecap="round" stroke-linejoin="round" fill="#F7B928" fill-opacity="0.5"></path>
    <path d="M256 80V464" stroke="#3A3A3A" stroke-width="12" stroke-linecap="round"></path>
</svg>