<svg xmlns="http://www.w3.org/2000/svg" xmlns:xlink="http://www.w3.org/1999/xlink" width="1080" zoomAndPan="magnify" viewBox="0 0 810 809.999993" height="1080" preserveAspectRatio="xMidYMid meet" version="1.0"><path fill="#024885" d="M 207.519531 459.632812 C 188.414062 461.710938 170.269531 467.027344 153.648438 474.949219 C 131.070312 485.792969 111.28125 501.507812 95.683594 520.765625 C 93.761719 523.160156 91.894531 525.578125 90.097656 528.066406 L 42.695312 480.664062 L 42.566406 480.511719 C 23.496094 460.445312 11.820312 433.320312 11.820312 403.5 C 11.820312 373.679688 23.566406 346.402344 42.695312 326.335938 L 322.273438 46.757812 L 326.066406 42.96875 C 346.132812 23.824219 373.316406 12.089844 403.230469 12.089844 C 433.144531 12.089844 460.328125 23.835938 480.394531 42.96875 L 481.359375 43.894531 L 483.246094 45.785156 L 484.175781 46.746094 L 635.054688 197.625 C 629.550781 216.226562 614.609375 230.769531 595.785156 235.746094 C 591.21875 236.953125 586.40625 237.609375 581.464844 237.609375 C 576.527344 237.609375 571.714844 236.953125 567.148438 235.746094 C 558.488281 233.445312 550.625 229.125 544.132812 223.292969 C 544.039062 223.257812 543.945312 223.164062 543.886719 223.070312 C 543.582031 222.824219 543.300781 222.578125 543.019531 222.257812 C 542.019531 221.332031 541.035156 220.335938 540.097656 219.277344 C 540.003906 219.21875 539.910156 219.125 539.875 219.03125 L 493.867188 173.0625 C 476.382812 155.539062 455.011719 141.867188 431.1875 133.488281 C 428.074219 132.371094 424.90625 131.339844 421.714844 130.449219 C 406.960938 126.1875 391.398438 123.921875 375.273438 123.921875 C 355.675781 123.921875 336.851562 127.277344 319.363281 133.488281 C 313.742188 135.449219 308.273438 137.746094 302.933594 140.257812 C 263.078125 159.367188 231.953125 193.71875 217.105469 235.757812 C 210.898438 253.242188 207.542969 272.066406 207.542969 291.667969 C 207.542969 311.265625 210.898438 330.089844 217.105469 347.578125 C 229.628906 383.054688 253.757812 413.066406 284.976562 433.039062 C 295.667969 439.90625 307.195312 445.5625 319.363281 449.847656 C 336.851562 456.054688 355.675781 459.410156 375.273438 459.410156 L 431.1875 459.410156 C 462.0625 459.410156 487.097656 484.445312 487.097656 515.320312 C 487.097656 546.199219 462.0625 571.234375 431.1875 571.234375 C 416.152344 571.234375 402.480469 565.269531 392.421875 555.578125 C 391.894531 555.105469 391.398438 554.613281 390.929688 554.085938 L 347.660156 510.851562 C 347.601562 510.757812 347.53125 510.699219 347.472656 510.628906 L 341.757812 504.910156 C 341.699219 504.851562 341.628906 504.78125 341.535156 504.722656 C 334.667969 498.199219 327.238281 492.238281 319.351562 486.921875 C 304.753906 477.132812 288.566406 469.585938 271.199219 464.738281 C 261.9375 462.15625 252.316406 460.328125 242.46875 459.398438 L 209.609375 459.398438 C 208.890625 459.457031 208.210938 459.527344 207.53125 459.621094 Z M 207.519531 459.632812 " fill-opacity="1" fill-rule="nonzero"/><path fill="#024885" d="M 794.640625 403.5 C 794.640625 433.886719 782.496094 461.464844 762.835938 481.628906 L 760.945312 483.515625 L 483.257812 761.207031 L 481.371094 763.09375 C 461.207031 782.753906 433.625 794.898438 403.242188 794.898438 C 372.855469 794.898438 346.449219 783.28125 326.417969 764.328125 L 326.078125 764.023438 L 322.285156 760.230469 L 321.980469 759.890625 L 172.464844 610.371094 C 177.554688 593.191406 190.722656 579.460938 207.53125 573.554688 C 210.453125 572.535156 213.527344 571.726562 216.660156 571.222656 C 219.699219 570.691406 222.847656 570.410156 226.039062 570.410156 C 229.230469 570.410156 232.375 570.691406 235.414062 571.222656 C 246.636719 573.085938 256.726562 578.332031 264.613281 585.878906 C 265.273438 586.464844 265.917969 587.125 266.503906 587.769531 L 315.46875 636.730469 C 316.746094 637.941406 318.015625 639.125 319.351562 640.300781 C 338.210938 657.199219 360.921875 669.898438 386.011719 676.894531 C 400.367188 680.894531 415.53125 683.042969 431.1875 683.042969 C 457.097656 683.042969 481.640625 677.175781 503.539062 666.671875 C 517.949219 659.769531 531.246094 650.863281 543.019531 640.300781 C 563.804688 621.722656 579.929688 598.027344 589.363281 571.210938 C 595.574219 553.722656 598.929688 534.898438 598.929688 515.296875 C 598.929688 495.699219 595.574219 476.875 589.363281 459.386719 C 579.917969 432.582031 563.804688 408.875 543.019531 390.296875 C 536.304688 384.265625 529.136719 378.808594 521.496094 373.925781 C 495.429688 357.214844 464.433594 347.554688 431.1875 347.554688 L 375.273438 347.554688 C 344.398438 347.554688 319.363281 322.519531 319.363281 291.644531 C 319.363281 260.765625 344.398438 235.734375 375.273438 235.734375 C 390.460938 235.734375 404.261719 241.824219 414.320312 251.636719 C 414.660156 251.941406 414.976562 252.257812 415.285156 252.597656 L 431.1875 268.5 L 459.644531 296.960938 C 459.796875 297.113281 459.925781 297.265625 460.042969 297.394531 L 465.761719 303.109375 C 465.890625 303.238281 466.042969 303.355469 466.195312 303.507812 C 485.394531 321.710938 508.914062 335.40625 535.039062 342.894531 C 537.679688 343.667969 540.320312 344.351562 543.019531 344.972656 C 547.398438 346.027344 551.84375 346.863281 556.375 347.554688 C 564.542969 348.761719 572.933594 349.421875 581.476562 349.421875 C 590.023438 349.421875 598.414062 348.761719 606.605469 347.554688 C 623.316406 345.042969 639.195312 340.066406 653.914062 333.046875 C 654.21875 332.894531 654.535156 332.742188 654.839844 332.578125 C 679.78125 320.398438 701.28125 302.230469 717.40625 279.953125 L 759.960938 322.507812 L 760.921875 323.4375 L 762.8125 325.324219 L 763.738281 326.289062 C 782.882812 346.355469 794.617188 373.539062 794.617188 403.453125 Z M 794.640625 403.5 " fill-opacity="1" fill-rule="nonzero"/></svg>