<svg xmlns="http://www.w3.org/2000/svg" xmlns:xlink="http://www.w3.org/1999/xlink" width="1080" zoomAndPan="magnify" viewBox="0 0 810 172.499995" height="230" preserveAspectRatio="xMidYMid meet" version="1.0"><path fill="#024885" d="M 52.535156 98.390625 C 49.203125 98.753906 46.039062 99.675781 43.140625 101.058594 C 39.203125 102.949219 35.753906 105.695312 33.023438 109.050781 C 32.6875 109.464844 32.363281 109.890625 32.046875 110.324219 L 23.777344 102.058594 L 23.757812 102.027344 C 20.4375 98.527344 18.390625 93.800781 18.390625 88.589844 C 18.390625 83.378906 20.4375 78.632812 23.777344 75.132812 L 24.441406 74.472656 L 73.210938 25.703125 C 76.710938 22.359375 81.457031 20.3125 86.667969 20.3125 C 91.878906 20.3125 96.625 22.359375 100.125 25.703125 L 100.292969 25.859375 L 100.617188 26.1875 L 100.777344 26.355469 L 127.097656 52.675781 C 126.140625 55.921875 123.53125 58.460938 120.246094 59.320312 C 119.445312 59.53125 118.613281 59.648438 117.746094 59.648438 C 116.875 59.648438 116.042969 59.53125 115.242188 59.320312 C 113.730469 58.917969 112.355469 58.164062 111.230469 57.148438 C 111.210938 57.148438 111.199219 57.128906 111.1875 57.105469 C 111.140625 57.066406 111.089844 57.019531 111.039062 56.96875 C 110.863281 56.8125 110.695312 56.632812 110.527344 56.445312 C 110.507812 56.433594 110.496094 56.414062 110.488281 56.40625 L 102.457031 48.386719 C 99.402344 45.332031 95.675781 42.949219 91.523438 41.484375 C 90.976562 41.285156 90.425781 41.109375 89.871094 40.949219 C 87.300781 40.207031 84.582031 39.8125 81.773438 39.8125 C 78.351562 39.8125 75.070312 40.398438 72.023438 41.484375 C 71.042969 41.832031 70.085938 42.226562 69.15625 42.660156 C 62.203125 45.992188 56.777344 51.984375 54.183594 59.320312 C 53.097656 62.378906 52.515625 65.660156 52.515625 69.070312 C 52.515625 72.484375 53.097656 75.777344 54.183594 78.820312 C 56.371094 85.011719 60.582031 90.242188 66.019531 93.734375 C 67.890625 94.929688 69.898438 95.917969 72.023438 96.660156 C 75.078125 97.746094 78.359375 98.332031 81.773438 98.332031 L 91.523438 98.332031 C 96.910156 98.332031 101.273438 102.699219 101.273438 108.078125 C 101.273438 113.460938 96.902344 117.828125 91.523438 117.828125 C 88.902344 117.828125 86.519531 116.792969 84.757812 115.101562 C 84.667969 115.019531 84.582031 114.933594 84.5 114.84375 L 76.957031 107.296875 C 76.957031 107.296875 76.9375 107.269531 76.925781 107.257812 L 75.929688 106.261719 C 75.929688 106.261719 75.910156 106.242188 75.890625 106.230469 C 74.691406 105.09375 73.398438 104.054688 72.023438 103.125 C 69.472656 101.414062 66.652344 100.101562 63.628906 99.261719 C 62.015625 98.816406 60.335938 98.488281 58.613281 98.332031 L 52.878906 98.332031 C 52.75 98.339844 52.632812 98.351562 52.515625 98.371094 Z M 52.535156 98.390625 " fill-opacity="1" fill-rule="nonzero"/><path fill="#024885" d="M 154.953125 88.601562 C 154.953125 93.902344 152.835938 98.714844 149.40625 102.226562 L 100.3125 151.320312 C 96.792969 154.75 91.988281 156.867188 86.6875 156.867188 C 81.386719 156.867188 76.777344 154.839844 73.289062 151.539062 L 73.230469 151.488281 L 72.566406 150.824219 L 72.515625 150.765625 L 46.433594 124.683594 C 47.324219 121.6875 49.617188 119.292969 52.554688 118.265625 C 53.066406 118.085938 53.601562 117.949219 54.144531 117.859375 C 54.679688 117.769531 55.222656 117.722656 55.785156 117.722656 C 56.351562 117.722656 56.894531 117.769531 57.429688 117.859375 C 59.386719 118.1875 61.144531 119.09375 62.519531 120.421875 C 62.640625 120.519531 62.746094 120.636719 62.847656 120.746094 L 71.390625 129.289062 C 71.609375 129.496094 71.835938 129.707031 72.074219 129.914062 C 75.363281 132.859375 79.320312 135.074219 83.699219 136.300781 C 86.203125 137.003906 88.851562 137.378906 91.582031 137.378906 C 96.101562 137.378906 100.382812 136.351562 104.199219 134.519531 C 106.710938 133.3125 109.035156 131.761719 111.089844 129.921875 C 114.71875 126.679688 117.527344 122.546875 119.179688 117.871094 C 120.265625 114.8125 120.851562 111.53125 120.851562 108.121094 C 120.851562 104.707031 120.265625 101.414062 119.179688 98.371094 C 117.527344 93.691406 114.71875 89.558594 111.089844 86.316406 C 109.921875 85.269531 108.667969 84.308594 107.332031 83.460938 C 102.785156 80.542969 97.375 78.859375 91.582031 78.859375 L 81.832031 78.859375 C 76.441406 78.859375 72.082031 74.492188 72.082031 69.113281 C 72.082031 63.734375 76.453125 59.363281 81.832031 59.363281 C 84.480469 59.363281 86.882812 60.421875 88.644531 62.140625 C 88.703125 62.191406 88.761719 62.25 88.8125 62.308594 L 96.554688 70.050781 C 96.554688 70.050781 96.605469 70.101562 96.625 70.128906 L 97.621094 71.128906 C 97.621094 71.128906 97.671875 71.167969 97.703125 71.199219 C 101.054688 74.371094 105.15625 76.765625 109.707031 78.070312 C 110.171875 78.207031 110.625 78.328125 111.101562 78.4375 C 111.863281 78.625 112.644531 78.761719 113.433594 78.882812 C 114.859375 79.089844 116.320312 79.207031 117.8125 79.207031 C 119.308594 79.207031 120.769531 79.089844 122.195312 78.882812 C 125.113281 78.445312 127.878906 77.574219 130.449219 76.351562 C 130.5 76.320312 130.558594 76.300781 130.609375 76.269531 C 134.960938 74.144531 138.707031 70.980469 141.527344 67.09375 L 148.953125 74.519531 L 149.121094 74.679688 L 149.445312 75.003906 L 149.605469 75.171875 C 152.945312 78.671875 154.992188 83.417969 154.992188 88.628906 Z M 154.953125 88.601562 " fill-opacity="1" fill-rule="nonzero"/><path fill="#024885" d="M 197.292969 125.710938 C 187.503906 125.710938 177.617188 122.289062 169.855469 115.359375 L 178.257812 105.292969 C 184.082031 110.097656 190.175781 113.144531 197.570312 113.144531 C 203.394531 113.144531 206.90625 110.828125 206.90625 107.042969 L 206.90625 106.855469 C 206.90625 103.253906 204.691406 101.40625 193.882812 98.628906 C 180.859375 95.304688 172.445312 91.695312 172.445312 78.851562 L 172.445312 78.664062 C 172.445312 66.925781 181.867188 59.164062 195.078125 59.164062 C 204.503906 59.164062 212.542969 62.121094 219.097656 67.390625 L 211.710938 78.109375 C 205.984375 74.132812 200.347656 71.730469 194.890625 71.730469 C 189.433594 71.730469 186.574219 74.222656 186.574219 77.367188 L 186.574219 77.554688 C 186.574219 81.808594 189.34375 83.191406 200.527344 86.058594 C 213.648438 89.480469 221.035156 94.1875 221.035156 105.460938 L 221.035156 105.648438 C 221.035156 118.492188 211.246094 125.699219 197.292969 125.699219 Z M 197.292969 125.710938 " fill-opacity="1" fill-rule="nonzero"/><path fill="#024885" d="M 243.578125 125.621094 C 234.988281 125.621094 229.164062 122.199219 229.164062 110.75 L 229.164062 87.285156 L 223.25 87.285156 L 223.25 75.273438 L 229.164062 75.273438 L 229.164062 62.613281 L 243.203125 62.613281 L 243.203125 75.273438 L 254.84375 75.273438 L 254.84375 87.285156 L 243.203125 87.285156 L 243.203125 108.445312 C 243.203125 111.679688 244.589844 113.25 247.734375 113.25 C 250.324219 113.25 252.628906 112.609375 254.664062 111.492188 L 254.664062 122.765625 C 251.707031 124.523438 248.285156 125.632812 243.578125 125.632812 Z M 243.578125 125.621094 " fill-opacity="1" fill-rule="nonzero"/><path fill="#024885" d="M 289.589844 124.789062 L 289.589844 119.429688 C 286.167969 123.21875 281.460938 125.710938 274.617188 125.710938 C 265.285156 125.710938 257.621094 120.351562 257.621094 110.5625 L 257.621094 110.375 C 257.621094 99.566406 265.847656 94.574219 277.574219 94.574219 C 282.566406 94.574219 286.167969 95.402344 289.675781 96.601562 L 289.675781 95.769531 C 289.675781 89.945312 286.078125 86.710938 279.046875 86.710938 C 273.6875 86.710938 269.902344 87.730469 265.371094 89.390625 L 261.863281 78.671875 C 267.3125 76.269531 272.671875 74.699219 281.085938 74.699219 C 296.421875 74.699219 303.164062 82.648438 303.164062 96.046875 L 303.164062 124.78125 L 289.578125 124.78125 Z M 289.867188 104.835938 C 287.460938 103.730469 284.320312 102.988281 280.90625 102.988281 C 274.90625 102.988281 271.207031 105.390625 271.207031 109.820312 L 271.207031 110.007812 C 271.207031 113.796875 274.351562 116.011719 278.878906 116.011719 C 285.4375 116.011719 289.875 112.410156 289.875 107.328125 L 289.875 104.835938 Z M 289.867188 104.835938 " fill-opacity="1" fill-rule="nonzero"/><path fill="#024885" d="M 341.964844 124.789062 L 341.964844 97.164062 C 341.964844 90.507812 338.820312 87.097656 333.460938 87.097656 C 328.101562 87.097656 324.679688 90.519531 324.679688 97.164062 L 324.679688 124.789062 L 310.640625 124.789062 L 310.640625 75.273438 L 324.679688 75.273438 L 324.679688 82.292969 C 327.914062 78.140625 332.066406 74.34375 339.1875 74.34375 C 349.816406 74.34375 356.007812 81.363281 356.007812 92.734375 L 356.007812 124.789062 Z M 341.964844 124.789062 " fill-opacity="1" fill-rule="nonzero"/><path fill="#024885" d="M 384.929688 68.519531 C 381.695312 68.519531 379.847656 70.179688 379.847656 73.878906 L 379.847656 75.816406 L 391.207031 75.816406 L 391.207031 87.277344 L 380.023438 87.277344 L 380.023438 124.789062 L 365.984375 124.789062 L 365.984375 87.277344 L 360.160156 87.277344 L 360.160156 75.726562 L 365.984375 75.726562 L 365.984375 72.582031 C 365.984375 61.675781 371.433594 56.691406 381.320312 56.691406 C 385.757812 56.691406 388.714844 57.246094 391.296875 58.078125 L 391.296875 69.714844 C 389.257812 68.972656 387.320312 68.519531 384.917969 68.519531 Z M 384.929688 68.519531 " fill-opacity="1" fill-rule="nonzero"/><path fill="#024885" d="M 417.628906 125.898438 C 402.292969 125.898438 390.929688 114.535156 390.929688 100.308594 L 390.929688 100.121094 C 390.929688 85.890625 402.390625 74.34375 417.816406 74.34375 C 433.242188 74.34375 444.515625 85.703125 444.515625 99.933594 L 444.515625 100.121094 C 444.515625 114.347656 433.054688 125.898438 417.628906 125.898438 Z M 430.652344 100.121094 C 430.652344 92.824219 425.378906 86.445312 417.628906 86.445312 C 409.875 86.445312 404.785156 92.636719 404.785156 99.933594 L 404.785156 100.121094 C 404.785156 107.417969 410.054688 113.796875 417.804688 113.796875 C 425.558594 113.796875 430.652344 107.605469 430.652344 100.308594 Z M 430.652344 100.121094 " fill-opacity="1" fill-rule="nonzero"/><path fill="#024885" d="M 479.160156 89.035156 C 469.828125 89.035156 464.101562 94.671875 464.101562 106.496094 L 464.101562 124.789062 L 450.0625 124.789062 L 450.0625 75.273438 L 464.101562 75.273438 L 464.101562 85.25 C 466.96875 78.417969 471.585938 73.976562 479.902344 74.34375 L 479.902344 89.035156 Z M 479.160156 89.035156 " fill-opacity="1" fill-rule="nonzero"/><path fill="#024885" d="M 504.476562 125.621094 C 495.882812 125.621094 490.058594 122.199219 490.058594 110.75 L 490.058594 87.285156 L 484.144531 87.285156 L 484.144531 75.273438 L 490.058594 75.273438 L 490.058594 62.613281 L 504.097656 62.613281 L 504.097656 75.273438 L 515.738281 75.273438 L 515.738281 87.285156 L 504.097656 87.285156 L 504.097656 108.445312 C 504.097656 111.679688 505.484375 113.25 508.628906 113.25 C 511.21875 113.25 513.523438 112.609375 515.558594 111.492188 L 515.558594 122.765625 C 512.601562 124.523438 509.179688 125.632812 504.476562 125.632812 Z M 504.476562 125.621094 " fill-opacity="1" fill-rule="nonzero"/><path fill="#024885" d="M 566.097656 104.925781 L 531.636719 104.925781 C 533.023438 111.304688 537.460938 114.625 543.738281 114.625 C 548.457031 114.625 551.867188 113.144531 555.753906 109.542969 L 563.792969 116.652344 C 559.175781 122.378906 552.519531 125.886719 543.5625 125.886719 C 528.691406 125.886719 517.695312 115.445312 517.695312 100.296875 L 517.695312 100.109375 C 517.695312 85.96875 527.761719 74.332031 542.179688 74.332031 C 558.71875 74.332031 566.292969 87.175781 566.292969 101.21875 L 566.292969 101.40625 C 566.292969 102.789062 566.207031 103.621094 566.105469 104.914062 Z M 542.167969 85.613281 C 536.34375 85.613281 532.558594 89.777344 531.449219 96.144531 L 552.609375 96.144531 C 551.777344 89.867188 548.082031 85.613281 542.167969 85.613281 Z M 542.167969 85.613281 " fill-opacity="1" fill-rule="nonzero"/><path fill="#fd2520" d="M 574.964844 60.113281 L 621.71875 60.113281 L 621.71875 66.769531 L 582.265625 66.769531 L 582.265625 88.847656 L 617.554688 88.847656 L 617.554688 95.503906 L 582.265625 95.503906 L 582.265625 118.136719 L 622.179688 118.136719 L 622.179688 124.789062 L 574.964844 124.789062 Z M 574.964844 60.113281 " fill-opacity="1" fill-rule="nonzero"/><path fill="#fd2520" d="M 627.34375 101.039062 L 627.34375 100.851562 C 627.34375 85.238281 638.703125 75.992188 650.164062 75.992188 C 659.035156 75.992188 664.757812 80.800781 668.457031 86.160156 L 668.457031 57.335938 L 675.566406 57.335938 L 675.566406 124.78125 L 668.457031 124.78125 L 668.457031 115.167969 C 664.582031 120.894531 658.945312 125.800781 650.164062 125.800781 C 638.703125 125.800781 627.34375 116.742188 627.34375 101.039062 Z M 668.734375 100.949219 L 668.734375 100.761719 C 668.734375 89.765625 660.328125 82.371094 651.460938 82.371094 C 642.589844 82.371094 634.640625 89.203125 634.640625 100.761719 L 634.640625 100.949219 C 634.640625 112.222656 642.492188 119.429688 651.460938 119.429688 C 660.429688 119.429688 668.734375 111.945312 668.734375 100.949219 Z M 668.734375 100.949219 " fill-opacity="1" fill-rule="nonzero"/><path fill="#fd2520" d="M 686.285156 133.105469 L 689.519531 127.558594 C 694.96875 131.535156 701.066406 133.660156 707.902344 133.660156 C 718.429688 133.660156 725.273438 127.835938 725.273438 116.664062 L 725.273438 111.027344 C 721.121094 116.574219 715.296875 121.09375 706.515625 121.09375 C 695.054688 121.09375 684.0625 112.5 684.0625 98.734375 L 684.0625 98.546875 C 684.0625 84.597656 695.144531 76.003906 706.515625 76.003906 C 715.476562 76.003906 721.300781 80.433594 725.183594 85.613281 L 725.183594 77.023438 L 732.292969 77.023438 L 732.292969 116.476562 C 732.292969 123.859375 730.078125 129.496094 726.195312 133.382812 C 721.941406 137.636719 715.5625 139.761719 707.988281 139.761719 C 700.039062 139.761719 692.652344 137.546875 686.277344 133.105469 Z M 725.460938 98.648438 L 725.460938 98.460938 C 725.460938 88.667969 716.957031 82.292969 707.910156 82.292969 C 698.863281 82.292969 691.378906 88.570312 691.378906 98.371094 L 691.378906 98.558594 C 691.378906 108.167969 699.042969 114.824219 707.910156 114.824219 C 716.78125 114.824219 725.460938 108.269531 725.460938 98.65625 Z M 725.460938 98.648438 " fill-opacity="1" fill-rule="nonzero"/><path fill="#fd2520" d="M 740.609375 101.039062 L 740.609375 100.851562 C 740.609375 87.085938 750.308594 75.992188 763.519531 75.992188 C 777.660156 75.992188 785.789062 87.265625 785.789062 101.21875 C 785.789062 102.136719 785.789062 102.699219 785.699219 103.53125 L 747.820312 103.53125 C 748.835938 113.882812 756.132812 119.699219 764.636719 119.699219 C 771.195312 119.699219 775.820312 117.019531 779.699219 112.953125 L 784.128906 116.929688 C 779.320312 122.289062 773.496094 125.886719 764.449219 125.886719 C 751.328125 125.886719 740.609375 115.824219 740.609375 101.03125 Z M 778.582031 98.269531 C 777.839844 89.589844 772.855469 82.015625 763.332031 82.015625 C 755.015625 82.015625 748.738281 88.945312 747.808594 98.269531 Z M 778.582031 98.269531 " fill-opacity="1" fill-rule="nonzero"/></svg>