<?xml version="1.0" encoding="UTF-8"?>
<svg id="Stanforteedge_Brandname" data-name="Stanforteedge Brandname" xmlns="http://www.w3.org/2000/svg" viewBox="0 0 1080 1080">
  <defs>
    <style>
      .cls-1 {
        fill: #024885;
      }

      .cls-2 {
        fill: #fd2520;
      }
    </style>
  </defs>
  <path class="cls-1" d="M149.12,592.04c-14.43,0-29-5.04-40.44-15.25l12.39-14.84c8.58,7.08,17.56,11.57,28.46,11.57,8.58,0,13.75-3.4,13.75-8.99v-.27c0-5.31-3.27-8.03-19.2-12.12-19.2-4.9-31.59-10.21-31.59-29.14v-.27c0-17.29,13.89-28.73,33.36-28.73,13.89,0,25.74,4.36,35.4,12.12l-10.89,15.8c-8.44-5.85-16.75-9.4-24.78-9.4s-12.26,3.68-12.26,8.31v.27c0,6.26,4.09,8.31,20.56,12.53,19.34,5.04,30.23,11.98,30.23,28.59v.27c0,18.93-14.43,29.55-34.99,29.55Z"/>
  <path class="cls-1" d="M217.33,591.9c-12.66,0-21.24-5.04-21.24-21.92v-34.59h-8.71v-17.7h8.71v-18.65h20.7v18.65h17.16v17.7h-17.16v31.18c0,4.77,2.04,7.08,6.67,7.08,3.81,0,7.22-.95,10.21-2.59v16.61c-4.36,2.59-9.4,4.22-16.34,4.22Z"/>
  <path class="cls-1" d="M285.14,590.67v-7.9c-5.04,5.58-11.98,9.26-22.06,9.26-13.75,0-25.06-7.9-25.06-22.33v-.27c0-15.93,12.12-23.28,29.41-23.28,7.35,0,12.66,1.22,17.84,2.99v-1.22c0-8.58-5.31-13.34-15.66-13.34-7.9,0-13.48,1.5-20.15,3.95l-5.17-15.8c8.03-3.54,15.93-5.85,28.32-5.85,22.6,0,32.54,11.71,32.54,31.45v42.35h-20.02Zm.41-29.41c-3.54-1.63-8.17-2.72-13.21-2.72-8.85,0-14.3,3.54-14.3,10.08v.27c0,5.58,4.63,8.85,11.3,8.85,9.67,0,16.2-5.31,16.2-12.8v-3.68Z"/>
  <path class="cls-1" d="M362.33,590.67v-40.71c0-9.8-4.63-14.84-12.53-14.84s-12.94,5.04-12.94,14.84v40.71h-20.7v-72.98h20.7v10.35c4.77-6.13,10.89-11.71,21.38-11.71,15.66,0,24.78,10.35,24.78,27.1v47.25h-20.7Z"/>
  <path class="cls-1" d="M425.64,507.75c-4.77,0-7.49,2.45-7.49,7.9v2.86h16.75v16.88h-16.48v55.28h-20.7v-55.28h-8.58v-17.02h8.58v-4.63c0-16.07,8.03-23.42,22.6-23.42,6.54,0,10.89,.82,14.71,2.04v17.16c-3-1.09-5.85-1.77-9.39-1.77Z"/>
  <path class="cls-1" d="M473.84,592.31c-22.6,0-39.35-16.75-39.35-37.72v-.27c0-20.97,16.88-37.99,39.62-37.99s39.35,16.75,39.35,37.72v.27c0,20.97-16.88,37.99-39.62,37.99Zm19.2-37.99c0-10.76-7.76-20.15-19.2-20.15s-18.93,9.12-18.93,19.88v.27c0,10.76,7.76,20.15,19.2,20.15s18.93-9.12,18.93-19.88v-.27Z"/>
  <path class="cls-1" d="M564.51,537.98c-13.75,0-22.19,8.31-22.19,25.73v26.96h-20.7v-72.98h20.7v14.71c4.22-10.08,11.03-16.61,23.28-16.07v21.65h-1.09Z"/>
  <path class="cls-1" d="M601.83,591.9c-12.66,0-21.24-5.04-21.24-21.92v-34.59h-8.71v-17.7h8.71v-18.65h20.7v18.65h17.16v17.7h-17.16v31.18c0,4.77,2.04,7.08,6.67,7.08,3.81,0,7.22-.95,10.21-2.59v16.61c-4.36,2.59-9.4,4.22-16.34,4.22Z"/>
  <path class="cls-1" d="M692.64,561.4h-50.79c2.04,9.39,8.58,14.3,17.84,14.3,6.94,0,11.98-2.18,17.7-7.49l11.85,10.48c-6.81,8.44-16.61,13.62-29.82,13.62-21.92,0-38.13-15.39-38.13-37.72v-.27c0-20.83,14.84-37.99,36.08-37.99,24.37,0,35.54,18.93,35.54,39.62v.27c0,2.04-.14,3.27-.27,5.17Zm-35.27-28.46c-8.58,0-14.16,6.13-15.8,15.52h31.18c-1.22-9.26-6.67-15.52-15.39-15.52Z"/>
  <path class="cls-2" d="M705.7,495.36h68.9v9.8h-58.14v32.54h52.01v9.8h-52.01v33.36h58.82v9.8h-69.58v-95.31Z"/>
  <path class="cls-2" d="M782.9,555.68v-.27c0-23.01,16.75-36.63,33.63-36.63,13.07,0,21.51,7.08,26.96,14.98v-42.48h10.48v99.4h-10.48v-14.16c-5.72,8.44-14.03,15.66-26.96,15.66-16.88,0-33.63-13.34-33.63-36.49Zm61-.14v-.27c0-16.2-12.39-27.1-25.46-27.1s-24.78,10.08-24.78,27.1v.27c0,16.61,11.57,27.23,24.78,27.23s25.46-11.03,25.46-27.23Z"/>
  <path class="cls-2" d="M869.76,602.93l4.77-8.17c8.03,5.85,17.02,8.99,27.1,8.99,15.52,0,25.6-8.58,25.6-25.05v-8.31c-6.13,8.17-14.71,14.84-27.64,14.84-16.88,0-33.09-12.66-33.09-32.95v-.27c0-20.56,16.34-33.22,33.09-33.22,13.21,0,21.79,6.53,27.5,14.16v-12.66h10.48v58.14c0,10.89-3.27,19.2-8.99,24.92-6.26,6.26-15.66,9.39-26.82,9.39-11.71,0-22.6-3.27-32-9.8Zm57.73-50.79v-.27c0-14.43-12.53-23.83-25.87-23.83s-24.37,9.26-24.37,23.69v.27c0,14.16,11.3,23.97,24.37,23.97s25.87-9.67,25.87-23.83Z"/>
  <path class="cls-2" d="M949.82,555.68v-.27c0-20.29,14.3-36.63,33.77-36.63,20.83,0,32.82,16.61,32.82,37.17,0,1.36,0,2.18-.14,3.4h-55.83c1.5,15.25,12.26,23.83,24.78,23.83,9.67,0,16.48-3.95,22.2-9.94l6.53,5.85c-7.08,7.9-15.66,13.21-29,13.21-19.33,0-35.13-14.84-35.13-36.63Zm55.96-4.09c-1.09-12.8-8.44-23.96-22.47-23.96-12.25,0-21.51,10.21-22.88,23.96h45.34Z"/>
</svg>