<?xml version="1.0" encoding="UTF-8"?>
<svg id="Stanforteedge_Logo" data-name="Stanforteedge Logo" xmlns="http://www.w3.org/2000/svg" viewBox="0 0 1080 1080">
  <defs>
    <style>
      .cls-1 {
        fill: #024885;
      }

      .cls-2 {
        fill: #fd2520;
      }
    </style>
  </defs>
  <g>
    <path class="cls-1" d="M183.83,587.76c-3.37,.37-6.57,1.3-9.5,2.7-3.98,1.91-7.47,4.69-10.23,8.08-.34,.42-.67,.85-.99,1.29l-8.36-8.36-.02-.03c-3.36-3.54-5.43-8.32-5.43-13.59s2.07-10.07,5.45-13.61l.67-.67,48.65-48.65,.67-.67c3.54-3.38,8.34-5.45,13.61-5.45s10.07,2.07,13.61,5.45l.17,.16,.33,.33,.16,.17,26.62,26.62c-.97,3.28-3.61,5.85-6.93,6.72-.81,.21-1.65,.33-2.53,.33s-1.72-.12-2.53-.33c-1.53-.41-2.92-1.17-4.06-2.2-.02,0-.03-.02-.04-.04-.05-.04-.1-.09-.15-.14-.18-.16-.35-.34-.52-.53-.02-.01-.03-.03-.04-.04l-8.12-8.11c-3.09-3.09-6.86-5.5-11.06-6.98-.55-.2-1.11-.38-1.67-.54-2.6-.75-5.35-1.15-8.19-1.15-3.46,0-6.78,.59-9.86,1.69-.99,.35-1.96,.75-2.9,1.19-7.03,3.37-12.52,9.43-15.14,16.85-1.1,3.09-1.69,6.41-1.69,9.86s.59,6.78,1.69,9.86c2.21,6.26,6.47,11.55,11.97,15.08,1.89,1.21,3.92,2.21,6.07,2.96,3.09,1.1,6.41,1.69,9.86,1.69h9.86c5.45,0,9.86,4.42,9.86,9.86s-4.42,9.86-9.86,9.86c-2.65,0-5.06-1.05-6.84-2.76-.09-.08-.18-.17-.26-.26l-7.63-7.63s-.02-.03-.03-.04l-1.01-1.01s-.02-.02-.04-.03c-1.21-1.15-2.52-2.2-3.91-3.14-2.58-1.73-5.43-3.06-8.49-3.91-1.63-.45-3.33-.78-5.07-.94h-5.8c-.13,.01-.25,.02-.37,.04Z"/>
    <path class="cls-1" d="M287.41,577.86c0,5.36-2.14,10.23-5.61,13.78l-.33,.33-48.99,48.99-.33,.33c-3.56,3.47-8.42,5.61-13.78,5.61s-10.02-2.05-13.55-5.39l-.06-.05-.67-.67-.05-.06-26.38-26.38c.9-3.03,3.22-5.45,6.19-6.49,.52-.18,1.06-.32,1.61-.41,.54-.09,1.09-.14,1.66-.14s1.12,.05,1.66,.14c1.98,.33,3.76,1.25,5.15,2.59,.12,.1,.23,.22,.33,.33l8.64,8.64c.22,.21,.45,.42,.69,.63,3.33,2.98,7.33,5.22,11.76,6.46,2.53,.71,5.21,1.09,7.97,1.09,4.57,0,8.9-1.04,12.76-2.89,2.54-1.22,4.89-2.79,6.97-4.65,3.67-3.28,6.51-7.46,8.18-12.19,1.1-3.09,1.69-6.41,1.69-9.86s-.59-6.78-1.69-9.86c-1.67-4.73-4.51-8.91-8.18-12.19-1.18-1.06-2.45-2.03-3.8-2.89-4.6-2.95-10.07-4.65-15.93-4.65h-9.86c-5.45,0-9.86-4.42-9.86-9.86s4.42-9.86,9.86-9.86c2.68,0,5.11,1.07,6.89,2.81,.06,.05,.12,.11,.17,.17l2.81,2.81,5.02,5.02s.05,.05,.07,.08l1.01,1.01s.05,.04,.08,.07c3.39,3.21,7.54,5.63,12.14,6.95,.47,.14,.93,.26,1.41,.37,.77,.19,1.56,.33,2.36,.45,1.44,.21,2.92,.33,4.43,.33s2.99-.12,4.43-.33c2.95-.44,5.75-1.32,8.35-2.56,.05-.03,.11-.05,.16-.08,4.4-2.15,8.19-5.35,11.04-9.28l7.51,7.51,.17,.16,.33,.33,.16,.17c3.38,3.54,5.45,8.34,5.45,13.61Z"/>
  </g>
  <g>
    <path class="cls-1" d="M330.23,615.39c-9.9,0-19.9-3.46-27.75-10.47l8.5-10.18c5.89,4.86,12.05,7.94,19.53,7.94,5.89,0,9.44-2.34,9.44-6.17v-.19c0-3.64-2.24-5.51-13.17-8.32-13.17-3.36-21.68-7.01-21.68-20v-.19c0-11.87,9.53-19.72,22.89-19.72,9.53,0,17.66,2.99,24.29,8.32l-7.47,10.84c-5.79-4.02-11.49-6.45-17.01-6.45s-8.41,2.52-8.41,5.7v.19c0,4.3,2.8,5.7,14.11,8.6,13.27,3.46,20.74,8.22,20.74,19.62v.19c0,12.99-9.9,20.28-24.01,20.28Z"/>
    <path class="cls-1" d="M377.04,615.3c-8.69,0-14.58-3.46-14.58-15.04v-23.73h-5.98v-12.15h5.98v-12.8h14.2v12.8h11.77v12.15h-11.77v21.4c0,3.27,1.4,4.86,4.58,4.86,2.62,0,4.95-.65,7.01-1.78v11.4c-2.99,1.78-6.45,2.9-11.21,2.9Z"/>
    <path class="cls-1" d="M423.57,614.46v-5.42c-3.46,3.83-8.22,6.35-15.14,6.35-9.44,0-17.19-5.42-17.19-15.32v-.19c0-10.93,8.32-15.98,20.18-15.98,5.05,0,8.69,.84,12.24,2.05v-.84c0-5.89-3.64-9.16-10.75-9.16-5.42,0-9.25,1.03-13.83,2.71l-3.55-10.84c5.51-2.43,10.93-4.02,19.44-4.02,15.51,0,22.33,8.04,22.33,21.59v29.06h-13.74Zm.28-20.18c-2.43-1.12-5.61-1.87-9.06-1.87-6.07,0-9.81,2.43-9.81,6.91v.19c0,3.83,3.18,6.07,7.76,6.07,6.63,0,11.12-3.64,11.12-8.78v-2.52Z"/>
    <path class="cls-1" d="M476.54,614.46v-27.94c0-6.73-3.18-10.18-8.6-10.18s-8.88,3.46-8.88,10.18v27.94h-14.2v-50.08h14.2v7.1c3.27-4.2,7.47-8.04,14.67-8.04,10.75,0,17.01,7.1,17.01,18.6v32.42h-14.2Z"/>
    <path class="cls-1" d="M519.99,557.55c-3.27,0-5.14,1.68-5.14,5.42v1.96h11.49v11.59h-11.31v37.94h-14.2v-37.94h-5.89v-11.68h5.89v-3.18c0-11.03,5.51-16.07,15.51-16.07,4.49,0,7.48,.56,10.09,1.4v11.77c-2.06-.75-4.02-1.21-6.45-1.21Z"/>
    <path class="cls-1" d="M553.06,615.58c-15.51,0-27-11.49-27-25.88v-.19c0-14.39,11.59-26.07,27.19-26.07s27,11.49,27,25.88v.19c0,14.39-11.59,26.07-27.19,26.07Zm13.17-26.07c0-7.38-5.33-13.83-13.17-13.83s-12.99,6.26-12.99,13.64v.19c0,7.38,5.33,13.83,13.17,13.83s12.99-6.26,12.99-13.64v-.19Z"/>
    <path class="cls-1" d="M615.29,578.3c-9.44,0-15.23,5.7-15.23,17.66v18.5h-14.2v-50.08h14.2v10.09c2.9-6.91,7.57-11.4,15.98-11.03v14.86h-.75Z"/>
    <path class="cls-1" d="M640.89,615.3c-8.69,0-14.58-3.46-14.58-15.04v-23.73h-5.98v-12.15h5.98v-12.8h14.2v12.8h11.77v12.15h-11.77v21.4c0,3.27,1.4,4.86,4.58,4.86,2.62,0,4.95-.65,7.01-1.78v11.4c-2.99,1.78-6.45,2.9-11.21,2.9Z"/>
    <path class="cls-1" d="M703.21,594.37h-34.85c1.4,6.45,5.89,9.81,12.24,9.81,4.77,0,8.22-1.5,12.15-5.14l8.13,7.19c-4.67,5.79-11.4,9.34-20.46,9.34-15.04,0-26.16-10.56-26.16-25.88v-.19c0-14.3,10.18-26.07,24.76-26.07,16.73,0,24.39,12.99,24.39,27.19v.19c0,1.4-.09,2.24-.19,3.55Zm-24.2-19.53c-5.89,0-9.72,4.21-10.84,10.65h21.4c-.84-6.35-4.58-10.65-10.56-10.65Z"/>
    <path class="cls-2" d="M712.18,549.05h47.28v6.73h-39.9v22.33h35.69v6.73h-35.69v22.89h40.37v6.73h-47.75v-65.41Z"/>
    <path class="cls-2" d="M765.15,590.44v-.19c0-15.79,11.49-25.14,23.08-25.14,8.97,0,14.76,4.86,18.5,10.28v-29.15h7.19v68.21h-7.19v-9.72c-3.92,5.79-9.62,10.75-18.5,10.75-11.59,0-23.08-9.16-23.08-25.04Zm41.86-.09v-.19c0-11.12-8.5-18.6-17.47-18.6s-17.01,6.91-17.01,18.6v.19c0,11.4,7.94,18.69,17.01,18.69s17.47-7.57,17.47-18.69Z"/>
    <path class="cls-2" d="M824.76,622.87l3.27-5.61c5.51,4.02,11.68,6.17,18.59,6.17,10.65,0,17.57-5.89,17.57-17.19v-5.7c-4.2,5.61-10.09,10.18-18.97,10.18-11.59,0-22.71-8.69-22.71-22.61v-.19c0-14.11,11.21-22.8,22.71-22.8,9.06,0,14.95,4.48,18.88,9.72v-8.69h7.19v39.9c0,7.47-2.24,13.17-6.17,17.1-4.3,4.3-10.75,6.45-18.41,6.45-8.04,0-15.51-2.24-21.96-6.73Zm39.62-34.85v-.19c0-9.9-8.6-16.35-17.75-16.35s-16.72,6.35-16.72,16.26v.19c0,9.72,7.75,16.45,16.72,16.45s17.75-6.63,17.75-16.35Z"/>
    <path class="cls-2" d="M879.7,590.44v-.19c0-13.92,9.81-25.14,23.17-25.14,14.3,0,22.52,11.4,22.52,25.51,0,.93,0,1.5-.09,2.34h-38.31c1.03,10.47,8.41,16.35,17.01,16.35,6.63,0,11.31-2.71,15.23-6.82l4.48,4.02c-4.86,5.42-10.75,9.06-19.9,9.06-13.27,0-24.11-10.18-24.11-25.14Zm38.4-2.8c-.75-8.78-5.79-16.44-15.42-16.44-8.41,0-14.76,7.01-15.7,16.44h31.12Z"/>
  </g>
</svg>